# xmcd
#
# Track frame offsets:
#	150
#	16845
#	32532
#	43220
#	54432
#	74137
#	87325
#	100712
#	116975
#	129157
#	145315
#	161150
#	195722
#	209957
#	230685
#
# Disc length: 3329 seconds
#
# Revision: 1
# Processed by: cddbd v1.5.1PL0 Copyright (c) Steve Scherf et al.
# Submitted via: EasyCDDAExtractor 6.2.0.3
#
DISCID=e10cff0f
DTITLE=Garth Brooks - Live and Alive
DYEAR=1993
DGENRE=Country
TTITLE0=Not Counting You
TTITLE1=Rodeo
TTITLE2=Two Of A Kind, Workin' On A Full House
TTITLE3=We Bury The Hatchet
TTITLE4=The Thunder Rolls
TTITLE5=The River
TTITLE6=Much Too Young (To Feel This Damn Old)
TTITLE7=What She's Doing Now
TTITLE8=Papa Loved Mama
TTITLE9=If Tomorrow Never Comes
TTITLE10=Shameless
TTITLE11=Friends In Low Places
TTITLE12=The Dance
TTITLE13=You May Be Right
TTITLE14=Keep Your Hands To Yourself
EXTD=Recorded Live in U.S.A in 1993\n"The Sensational Garth Brooks"\nMajor Bob
EXTD=Music Co. INC.
EXTT0=
EXTT1=
EXTT2=
EXTT3=
EXTT4=
EXTT5=
EXTT6=
EXTT7=
EXTT8=
EXTT9=
EXTT10=
EXTT11=
EXTT12=
EXTT13=
EXTT14=
PLAYORDER=
